<svg width="600" height="102.4" xmlns="http://www.w3.org/2000/svg" viewBox="0 0 373.89 63.92"><defs><style>.cls-1{fill:#611975;fill-rule:evenodd;}</style></defs><g id="Layer_2" data-name="Layer 2"><g id="svg"><path class="cls-1" d="M57.84,0c-8.39,0-10.6.15-10.26.72C49.5,4,50.9,5.18,52.76,5.18H54.7v3A6.82,6.82,0,0,0,56.13,13l1.42,1.87L56.13,17A8.28,8.28,0,0,0,54.7,21c0,1.72-.19,2-1.37,2A3,3,0,0,0,51,24.45c-1.27,1.94-1.22,2,1.14,2,1.55,0,2.14.27,2.35,1.09.53,2,3.64,2,3.64,0,0-.86.46-1.05,2.56-1.05h2.56l.18,2.93c.16,2.78.3,3,2.62,4.38l2.44,1.44V0Zm5.5,19.29V23H58.16V15.55h5.18Zm0-10.65v3.45H58.26l-.19-3.45-.2-3.46h5.47Z"/><path class="cls-1" d="M16.44,18.43H4.61V22c0,2.92.5,4.79,2.58,9.93,2,4.94,2.58,5.92,2.59,4.46,0-1.8.1-1.87,2.34-1.87h2.33l-.17,3.6c-.17,3.56-.19,3.6-1.82,3.48-1.43-.1-1.6,0-1.3,1.15a11.33,11.33,0,0,1,.35,1.75c0,.27,1.21-.58,2.68-1.87,3.28-2.88,3.29-2.89,4.88,0,.93,1.65,1.67,2.31,2.63,2.31s1.33.3,1.33,1.69a10.8,10.8,0,0,0,.61,3.27l.6,1.58,1.69-1.69,1.68-1.69.33-14.83.33-14.82ZM12.12,31.1H9.79V23.54l2.16.18,2.16.18.17,3.6.17,3.6ZM23,38.29V42h-2c-2.29,0-2.65-.65-2.65-4.66V34.55H23Zm0-10.9v3.78L20.87,31c-2.14-.18-2.16-.2-2.33-3-.25-3.82.07-4.39,2.46-4.39h2Z"/><path class="cls-1" d="M70.83,60.46H68.52V39.25l-6.7-3.57C56,32.59,55,32.24,54.59,33c-1.06,1.9-5.64,1.25-5.64-.79,0-1.11-.3-1.73-.82-1.73a5.92,5.92,0,0,1-1.73-.35c-.72-.28-.91.07-.91,1.73V34H40.31V26.49h2.56c3.48,0,6.08-3.44,6.08-8V15.55h2c1.11,0,2-.2,2-.43,0-1-1.82-2.74-2.74-2.74-.67,0-1.08-.6-1.27-1.85-.16-1-1.65-3.8-3.32-6.19L42.6,0H34.55V38l1.58-.36c2.9-.65,6-1.45,6.81-1.77.5-.2.82,0,.82.6a.9.9,0,0,0,.87.93c.67,0,.86.77.86,3.45,0,3.28-.07,3.46-1.4,3.46a1.69,1.69,0,0,0-1.76,1.15c-.5,1.55.07,2.3,1.76,2.3.77,0,1.4.34,1.4.74s.78,1.2,1.73,1.76l1.73,1V49.52c0-1.77,0-1.79,2.73-1.61l2.74.17.28,3.69L55,55.45,50.15,58c-4.4,2.3-5.16,2.52-8.35,2.36l-3.51-.16,4.47-2.5c4.54-2.55,5.13-3.17,3.6-3.76-.53-.2-.87,0-.87.51s-.7.85-2.59.85H40.31V52.71c0-1.92-.27-2.72-1.07-3.14-1-.54-1-.87-.37-4.69l.71-4.11-1.72.35a17.53,17.53,0,0,1-2.52.34c-.64,0-.79,1.82-.79,9.5v9.5H28.22V52.74L26,54.92,23.76,57.1,22.46,55a7.29,7.29,0,0,0-2.67-2.62c-1-.39-1.36-.95-1.36-2.28a6.65,6.65,0,0,0-.92-3.15c-1.47-2.25-3.11-.81-3.11,2.72V52.4H10.08l-1.92-5.9C4.65,35.71,4.71,35.68,4.65,48.8l0,11.66H2.3c-2.17,0-2.3.1-2.3,1.73v1.73H73.13V62.19C73.13,60.56,73,60.46,70.83,60.46ZM40.31,5.18h5.18V8.64c0,3.18-.1,3.46-1.29,3.5-.72,0-1.88.11-2.6.19-1.22.14-1.29-.06-1.29-3.5Zm0,14.11V15.55h5.18V23H40.31ZM54.7,40.88v3.46H49V37.43H54.7Zm8.64,10.66v3.74H58.16V47.79h5.18Zm0-10.66v3.46H58.16V37.43h5.18Z"/><path class="cls-1" d="M350.68,8.71c-1.94.38-4.52.86-5.73,1.08-2.46.43-3,1.51-.78,1.51,3.15,0,3.32.76,3.28,14.92,0,7.17,0,13.74,0,14.6,0,1.68-.18,1.67,4.87.41l2.21-.55V34.6c0-7,1-9.17,4.13-9.17,2.4,0,2.6.61,2.93,8.82l.29,7.36,1.72.19c1.86.22,8.41-1.41,9.61-2.39s.82-1.4-1.31-1.15c-2.73.32-3.25-1.09-3.25-8.75,0-8.81-3.28-10.7-10.76-6.2l-3.33,2-.16-8.65L354.21,8l-3.53.7"/><path class="cls-1" d="M124.14,12.8a17.84,17.84,0,0,1-4.56.47c-.24-.15-.44.14-.44.65s.52.92,1.32.92c3,0,3.07.37,3.38,12.24s.42,12.33,3.61,14,10.64.68,13.55-1.9c.65-.58,1.1-.66,1.36-.24s.23.63,0,.63-.06.53.28,1.18c.72,1.33,2.57,1.49,6.18.55,5.78-1.51,7.57-3.2,3.39-3.2H150l-.43-4.71a125.1,125.1,0,0,1-.07-13.09c.41-9.45.78-8.82-4.55-7.75l-3.19.64L142,24.76l.18,11.58-1.47,1.38a5.71,5.71,0,0,1-7.86-.11L131.2,36V11.89l-1.47.08c-.81,0-3.33.42-5.59.83"/><path class="cls-1" d="M195,12.47c-1.13.26-3,.64-4.26.85-2.63.46-2.94,1.51-.45,1.51s2.46.52,2.25,14.89c-.21,13.77-.64,12.74,4.82,11.48l3-.7-.15-6.07c-.24-9.32.74-8.92,7.12,2.91,1.35,2.51,2.81,4.56,3.24,4.56a57.74,57.74,0,0,0,7.23-1.5,23.72,23.72,0,0,0-2.4-3.87c-3.83-5.56-8.66-13.79-8.66-14.77,0-.47,2.11-2.89,4.69-5.36l4.69-4.51h-2.42c-2.59,0-2.59,0-6.05,5a68,68,0,0,1-5,6.18l-3,3.24.4-7.21.4-7.21L198.8,12a25.37,25.37,0,0,0-3.76.52"/><path class="cls-1" d="M230.64,12.49c-7.38.22-10.38.53-11.47,1.17l-1.47.88,2.17.18c2.78.23,3.13,2.44,2.68,16.71l-.31,9.88h9.88c10.5,0,10.59,0,10.59-2.93,0-1-.13-1-3.39,0a48.53,48.53,0,0,1-6.12,1.43l-2.74.4-.41-5.52c-.6-8.06-.75-7.81,4.22-7.6,3.83.15,4.19.06,4.5-1.09s.23-1.25-4.34-.84l-4.67.41V21.44a41.13,41.13,0,0,1,.38-6l.38-1.9,3.3.41c3.9.48,4.5.89,5,3.36s1.24,1.6,2-2c.71-3.43,1.76-3.14-10.17-2.78"/><path class="cls-1" d="M119.37,46.18c-2.11.4-3.39-.24-6.56-3.29-3-2.9-3-2.86-.51-5.77,4.65-5.43,5-16.15.8-21.19-3.25-3.85-11.21-5.29-17.15-3.11-6.12,2.24-9.32,7.22-9.38,14.6-.09,9.82,4.51,14.61,14,14.59h4.15l3.57,3.78c4,4.21,4.72,4.42,9.35,2.66C121,47.19,122.12,45.65,119.37,46.18ZM105.7,36.37l-3.3.77-1.74.41L102,38.89c1.67,1.67,1.31,2.09-1.35,1.59C93,39,91.43,17.62,98.71,14c2.12-1,2.5-1.1,4.41-.59C108.45,14.87,110.74,35.24,105.7,36.37Z"/><path class="cls-1" d="M185.34,34.06c-1.44-3.48-3.73-9.82-5.09-14.1-3-9.42-2.07-8.61-8.6-7.56-5.4.87-7.77,2.43-3.67,2.43,1,0,1.76.31,1.76.76,0,1-9.19,19.21-11.63,23.08-2,3.22-1.75,3.68,1.69,2.79a2.74,2.74,0,0,0,2.43-2.53c1.92-7.85,2.91-8.78,9.35-8.79,4.87,0,5.11.3,7.55,9.79l.63,2.44,4-.89c2.18-.49,4-.94,4.1-1S186.77,37.53,185.34,34.06ZM170.71,29h-5l2.72-5.9c1.49-3.24,2.89-5.69,3.11-5.44a32.69,32.69,0,0,1,1.91,4.57C176.17,29.65,176.45,29,170.71,29Z"/><path class="cls-1" d="M275.66,21.89c-1.13.25-3.05.64-4.27.85-2.66.47-2.85,1.23-.43,1.72,2.58.51,3,2.23,2.56,10.5l-.38,7.1,2.88-.41c5-.71,4.75-.37,4.47-5.79-.42-8.19,1.42-11.83,4.3-8.52,1.75,2,1.49,2.06,3.74-.74l1.89-2.35L289,22.78c-1.94-2-3.4-1.86-5.92.35L281,25V23.13c0-2-.92-2.22-5.29-1.24"/><path class="cls-1" d="M341.87,27.37c-.84-5.59-6.5-7.88-12.25-4.95-2.14,1.09-2.18,1.09-2.18,0,0-1.31-.75-1.33-7-.19-4.72.86-6.88,2-3.77,2,3.35,0,3.44.47,3.26,16.81l-.16,14.85,2.52-.54c6-1.27,5.38-.35,5-7.51l-.34-6.34,3.19.26C337.58,42.4,343.11,35.61,341.87,27.37ZM334,37.66c-1.49,3.53-5.21,3.93-6.55.69-3.2-7.73,2.72-19.52,6.35-12.64C335,28,335.09,35,334,37.66Z"/><path class="cls-1" d="M314.64,38.26l-2.2-.18-.3-7.19c-.37-9.19-.41-9.23-7.82-9.44-3.66-.1-6,.11-7.23.67-1.76.79-4.37,3.52-4.37,4.56,0,1.57,3.87.4,4.71-1.41,1.72-3.71,6.66-2.61,7.15,1.59.2,1.7.14,1.74-3.73,2.46-7.37,1.36-9.89,3.49-9.89,8.34,0,4.38,4.91,5.69,10.7,2.85l2.76-1.35.34,1.37c.45,1.8,3.39,1.85,8.44.14C317.37,39.26,317.81,38.52,314.64,38.26Zm-9.56-5c0,4.91-5,8-6.52,4.07-1.3-3.43.76-6.64,4.26-6.64h2.26Z"/><path class="cls-1" d="M267,18.91c-.57.63-1.38,1.56-1.81,2.09-.67.8-1.62.89-6.29.55-8.7-.62-13.24,2.34-12.46,8.15.32,2.36,2.34,5.14,3.74,5.14s.89.8-1.34,2.58c-2,1.59-2.11,1.86-1.83,4.33s.1,2.81-1.39,4.19c-5.65,5.23.11,10.52,10.76,9.88,9.46-.56,14.53-6,11.35-12.16-1.27-2.45-2.5-2.92-8.81-3.33-8.16-.54-9.72-3.52-2.33-4.45,8.5-1.08,11.92-5.58,8.81-11.59l-.86-1.66,2.26-.36c2.4-.39,3.19-1,3.84-3.17C271.16,17.36,268.51,17.22,267,18.91ZM254.37,45c4.38.23,5.13.43,6.13,1.66,2.62,3.24-.5,7.63-5.42,7.63s-8.06-3.85-6.42-7.81l.72-1.74Zm3.94-11.9c-3.32,3.66-6.77-3.13-4.33-8.5a2.85,2.85,0,0,1,4.64-.58C259.82,25.43,259.6,31.64,258.31,33.07Z"/></g></g></svg>