<svg width="600" height="450" viewBox="0 0 600 450" fill="none" xmlns="http://www.w3.org/2000/svg">
<rect x="0.5" y="0.5" width="599" height="449" rx="7.5" fill="white" stroke="#611975"/>
<path d="M265.252 238H263.592V225.22H265.252V238ZM264.482 236.59H271.222V238H264.482V236.59ZM276.442 238.25C275.042 238.25 273.979 237.873 273.252 237.12C272.532 236.36 272.172 235.27 272.172 233.85V232.36C272.172 230.947 272.536 229.863 273.262 229.11C273.989 228.357 275.049 227.98 276.442 227.98C277.842 227.98 278.902 228.357 279.622 229.11C280.349 229.863 280.712 230.947 280.712 232.36V233.85C280.712 235.27 280.349 236.36 279.622 237.12C278.902 237.873 277.842 238.25 276.442 238.25ZM276.442 236.93C277.309 236.93 277.966 236.673 278.412 236.16C278.866 235.647 279.092 234.907 279.092 233.94V232.27C279.092 231.31 278.866 230.577 278.412 230.07C277.966 229.557 277.309 229.3 276.442 229.3C275.582 229.3 274.926 229.557 274.472 230.07C274.019 230.577 273.792 231.31 273.792 232.27V233.94C273.792 234.907 274.019 235.647 274.472 236.16C274.926 236.673 275.582 236.93 276.442 236.93ZM288.704 238L288.774 235.63L288.714 235.38V232.27L288.724 231.7C288.724 230.907 288.52 230.32 288.114 229.94C287.714 229.56 287.077 229.37 286.204 229.37C285.504 229.37 284.86 229.47 284.274 229.67C283.694 229.87 283.177 230.103 282.724 230.37L282.874 228.99C283.127 228.837 283.427 228.687 283.774 228.54C284.127 228.387 284.527 228.26 284.974 228.16C285.427 228.06 285.924 228.01 286.464 228.01C287.164 228.01 287.757 228.097 288.244 228.27C288.737 228.437 289.134 228.68 289.434 229C289.74 229.32 289.964 229.707 290.104 230.16C290.244 230.613 290.314 231.12 290.314 231.68V238H288.704ZM285.344 238.21C284.377 238.21 283.634 237.977 283.114 237.51C282.6 237.037 282.344 236.363 282.344 235.49V235.2C282.344 234.3 282.62 233.63 283.174 233.19C283.734 232.743 284.62 232.433 285.834 232.26L288.924 231.82L289.014 233L286.034 233.43C285.287 233.537 284.754 233.72 284.434 233.98C284.114 234.233 283.954 234.61 283.954 235.11V235.27C283.954 235.783 284.11 236.177 284.424 236.45C284.744 236.723 285.22 236.86 285.854 236.86C286.414 236.86 286.894 236.763 287.294 236.57C287.694 236.377 288.017 236.117 288.264 235.79C288.51 235.463 288.677 235.1 288.764 234.7L289.014 235.8H288.704C288.61 236.227 288.434 236.623 288.174 236.99C287.92 237.357 287.564 237.653 287.104 237.88C286.644 238.1 286.057 238.21 285.344 238.21ZM296.017 238.21C294.843 238.21 293.95 237.847 293.337 237.12C292.723 236.393 292.417 235.333 292.417 233.94V232.33C292.417 230.93 292.727 229.863 293.347 229.13C293.967 228.39 294.88 228.02 296.087 228.02C296.687 228.02 297.207 228.123 297.647 228.33C298.087 228.53 298.443 228.813 298.717 229.18C298.99 229.547 299.173 229.98 299.267 230.48H299.797L299.317 231.97C299.297 231.397 299.167 230.917 298.927 230.53C298.693 230.137 298.373 229.84 297.967 229.64C297.567 229.44 297.107 229.34 296.587 229.34C295.76 229.34 295.127 229.58 294.687 230.06C294.253 230.54 294.037 231.247 294.037 232.18V234.04C294.037 234.96 294.253 235.66 294.687 236.14C295.127 236.62 295.76 236.86 296.587 236.86C297.08 236.86 297.517 236.767 297.897 236.58C298.277 236.387 298.59 236.123 298.837 235.79C299.09 235.45 299.263 235.067 299.357 234.64L299.757 235.8H299.277C299.183 236.24 299.003 236.643 298.737 237.01C298.477 237.377 298.123 237.67 297.677 237.89C297.237 238.103 296.683 238.21 296.017 238.21ZM299.277 238L299.347 235.64L299.317 235.12V231.04L299.327 230.7L299.287 227.93V224.75H300.897V238H299.277ZM303.569 238V228.24H305.189V238H303.569ZM304.379 226.64C304.045 226.64 303.795 226.553 303.629 226.38C303.469 226.2 303.389 225.957 303.389 225.65V225.6C303.389 225.287 303.469 225.043 303.629 224.87C303.795 224.697 304.045 224.61 304.379 224.61C304.712 224.61 304.962 224.697 305.129 224.87C305.295 225.043 305.379 225.287 305.379 225.6V225.65C305.379 225.963 305.295 226.207 305.129 226.38C304.962 226.553 304.712 226.64 304.379 226.64ZM314.405 238V231.93C314.405 231.403 314.331 230.95 314.185 230.57C314.045 230.19 313.811 229.897 313.485 229.69C313.165 229.477 312.725 229.37 312.165 229.37C311.651 229.37 311.205 229.467 310.825 229.66C310.451 229.853 310.148 230.117 309.915 230.45C309.681 230.777 309.518 231.15 309.425 231.57L309.135 230.42H309.485C309.591 229.98 309.778 229.58 310.045 229.22C310.311 228.853 310.668 228.563 311.115 228.35C311.568 228.13 312.121 228.02 312.775 228.02C313.548 228.02 314.171 228.167 314.645 228.46C315.125 228.753 315.475 229.177 315.695 229.73C315.915 230.277 316.025 230.95 316.025 231.75V238H314.405ZM307.875 238V228.24H309.495L309.425 230.58L309.495 230.67V238H307.875ZM322.339 235.08C321.012 235.08 319.992 234.79 319.279 234.21C318.572 233.63 318.219 232.8 318.219 231.72V231.47C318.219 230.797 318.355 230.21 318.629 229.71C318.909 229.21 319.352 228.82 319.959 228.54C320.565 228.253 321.359 228.097 322.339 228.07L327.319 227.91V229.19L324.379 229.09L324.369 229.16C324.829 229.253 325.205 229.413 325.499 229.64C325.792 229.867 326.009 230.15 326.149 230.49C326.295 230.83 326.369 231.227 326.369 231.68V231.9C326.369 232.933 326.029 233.723 325.349 234.27C324.669 234.81 323.665 235.08 322.339 235.08ZM322.269 240.46H322.499C323.099 240.46 323.612 240.413 324.039 240.32C324.472 240.233 324.805 240.093 325.039 239.9C325.272 239.707 325.389 239.45 325.389 239.13V239.09C325.389 238.717 325.252 238.43 324.979 238.23C324.712 238.037 324.252 237.91 323.599 237.85L320.839 237.6L321.299 237.58C320.925 237.633 320.595 237.72 320.309 237.84C320.029 237.96 319.809 238.117 319.649 238.31C319.489 238.51 319.409 238.757 319.409 239.05V239.07C319.409 239.41 319.525 239.683 319.759 239.89C319.992 240.097 320.322 240.243 320.749 240.33C321.175 240.417 321.682 240.46 322.269 240.46ZM322.179 241.75C321.299 241.75 320.539 241.673 319.899 241.52C319.265 241.373 318.772 241.13 318.419 240.79C318.072 240.457 317.899 240.007 317.899 239.44V239.4C317.899 239 317.992 238.667 318.179 238.4C318.372 238.133 318.629 237.923 318.949 237.77C319.275 237.617 319.639 237.513 320.039 237.46L320.029 237.4C319.482 237.307 319.079 237.147 318.819 236.92C318.559 236.687 318.429 236.387 318.429 236.02V236.01C318.429 235.757 318.485 235.54 318.599 235.36C318.719 235.18 318.895 235.037 319.129 234.93C319.369 234.823 319.672 234.757 320.039 234.73V234.53L321.899 235L321.139 234.98C320.685 234.987 320.372 235.043 320.199 235.15C320.025 235.25 319.939 235.403 319.939 235.61V235.62C319.939 235.84 320.062 236.007 320.309 236.12C320.555 236.233 320.975 236.323 321.569 236.39L323.939 236.63C324.972 236.737 325.725 236.987 326.199 237.38C326.672 237.767 326.909 238.34 326.909 239.1V239.15C326.909 239.757 326.729 240.253 326.369 240.64C326.009 241.027 325.499 241.307 324.839 241.48C324.179 241.66 323.389 241.75 322.469 241.75H322.179ZM322.319 233.88C322.879 233.88 323.342 233.8 323.709 233.64C324.082 233.473 324.362 233.227 324.549 232.9C324.742 232.567 324.839 232.16 324.839 231.68V231.44C324.839 230.973 324.745 230.577 324.559 230.25C324.379 229.923 324.105 229.677 323.739 229.51C323.372 229.337 322.912 229.25 322.359 229.25H322.299C321.699 229.25 321.209 229.343 320.829 229.53C320.455 229.71 320.182 229.967 320.009 230.3C319.842 230.627 319.759 231.01 319.759 231.45V231.68C319.759 232.16 319.852 232.563 320.039 232.89C320.232 233.217 320.519 233.463 320.899 233.63C321.279 233.797 321.752 233.88 322.319 233.88ZM329.344 238.19C328.997 238.19 328.74 238.097 328.574 237.91C328.414 237.717 328.334 237.447 328.334 237.1V237C328.334 236.66 328.414 236.397 328.574 236.21C328.74 236.023 328.997 235.93 329.344 235.93C329.684 235.93 329.937 236.023 330.104 236.21C330.27 236.397 330.354 236.66 330.354 237V237.1C330.354 237.447 330.27 237.717 330.104 237.91C329.937 238.097 329.684 238.19 329.344 238.19ZM333.172 238.19C332.825 238.19 332.568 238.097 332.402 237.91C332.242 237.717 332.162 237.447 332.162 237.1V237C332.162 236.66 332.242 236.397 332.402 236.21C332.568 236.023 332.825 235.93 333.172 235.93C333.512 235.93 333.765 236.023 333.932 236.21C334.098 236.397 334.182 236.66 334.182 237V237.1C334.182 237.447 334.098 237.717 333.932 237.91C333.765 238.097 333.512 238.19 333.172 238.19ZM337 238.19C336.653 238.19 336.397 238.097 336.23 237.91C336.07 237.717 335.99 237.447 335.99 237.1V237C335.99 236.66 336.07 236.397 336.23 236.21C336.397 236.023 336.653 235.93 337 235.93C337.34 235.93 337.593 236.023 337.76 236.21C337.927 236.397 338.01 236.66 338.01 237V237.1C338.01 237.447 337.927 237.717 337.76 237.91C337.593 238.097 337.34 238.19 337 238.19Z" fill="#611975"/>
</svg>
